<svg width="96" height="96" viewBox="0 0 96 96" fill="none" xmlns="http://www.w3.org/2000/svg">
<g clip-path="url(#clip0_37_76)">
<rect width="96" height="96" rx="48" fill="white"/>
<circle cx="48" cy="48" r="48" fill="#D9D9D9"/>
<path d="M68.4766 37.0839C68.4766 37.0839 71.875 36.6711 72.1822 39.9063C72.4894 43.1415 71.4046 45.6279 69.3886 46.7031C69.3886 46.7031 68.9566 46.9143 67.9678 47.0871L68.4766 37.0935V37.0839Z" fill="#FFB69F"/>
<path d="M30.0287 37.0839C30.0287 37.0839 26.6303 36.6711 26.3231 39.9063C26.0159 43.1415 27.1007 45.6279 29.1167 46.7031C29.1167 46.7031 29.5487 46.9143 30.5375 47.0871L30.0287 37.0935V37.0839Z" fill="#FFB69F"/>
<path d="M2.88 100.542C2.88 100.542 2.88 86.9672 10.8288 84.2888C18.7776 81.6104 36.7392 71.3288 36.7392 71.3288H48.8928V100.542H2.88V100.542Z" fill="#F49037"/>
<path d="M94.1562 100.542C94.1562 100.542 94.1562 86.9672 86.2074 84.2888C78.2586 81.6104 60.489 71.3288 60.489 71.3288H48.1434V100.542H94.1562V100.542Z" fill="#F49037"/>
<path d="M39.7632 61.9388L38.64 71.3276H58.3968L57.168 61.9388H39.7632Z" fill="#FFB69F"/>
<path d="M48.5184 76.9449C53.9741 76.9449 58.3968 75.0237 58.3968 72.6537C58.3968 70.2837 53.9741 68.3625 48.5184 68.3625C43.0627 68.3625 38.64 70.2837 38.64 72.6537C38.64 75.0237 43.0627 76.9449 48.5184 76.9449Z" fill="#FFB69F"/>
<path d="M39.014 68.217C39.014 68.217 52.502 69.4554 57.254 63.5418V56.745L40.1564 58.3866L39.014 68.217V68.217Z" fill="#FF9988"/>
<path d="M49.3249 64.6655C60.1991 64.6655 69.0145 53.396 69.0145 39.4943C69.0145 25.5927 60.1991 14.3231 49.3249 14.3231C38.4506 14.3231 29.6353 25.5927 29.6353 39.4943C29.6353 53.396 38.4506 64.6655 49.3249 64.6655Z" fill="#FFB69F"/>
<path d="M66.5184 19.3928C66.5184 19.3928 66.5376 19.3448 66.5184 19.316C65.8656 17.7512 65.0688 9.88876 52.2624 8.69836C48.9792 8.39116 44.2848 8.93836 41.3088 10.3592C37.2288 12.2984 32.6688 13.412 28.6368 13.4024C28.464 13.4024 28.3968 13.6328 28.5504 13.7192L31.6992 16.2248C31.824 16.292 31.8144 16.4744 31.68 16.532L27.7248 17.732C27.5808 17.7896 27.5808 18.0008 27.7248 18.0488C28.368 18.26 30 18.98 31.4784 19.4888C29.0592 23.7704 29.616 29.924 29.616 37.316C29.616 37.316 29.5392 44.9768 32.1216 53.7608C34.944 63.3608 41.136 67.4792 49.8624 67.508C59.1552 67.5464 64.0032 59.5784 65.2992 56.7464C67.2768 52.4072 68.976 44.3432 68.9856 39.4952C68.9856 39.4952 72.5568 27.2456 66.4992 19.3928H66.5184ZM58.6272 54.9608C56.7072 55.94 57.6768 50.8424 53.856 50.6312C52.5792 50.5544 48.24 50.2568 44.592 50.564C41.8176 50.804 41.1456 53.3 41.0208 54.5672C40.9632 55.1144 40.7712 55.364 40.2528 55.172C39.1008 54.7496 36.6528 53.3864 35.5008 52.1192C34.3104 50.8136 32.16 47.2904 31.9584 39.8504L32.1696 29.2232C32.1696 29.2232 36.4416 25.6424 37.1808 23.0984C37.1808 23.0984 56.2656 26.1512 61.7952 23.0984C61.7952 23.0984 64.1088 27.524 66.6336 28.8584C67.4112 29.2616 67.2768 34.3112 67.2096 37.796C67.1424 38.2664 67.0848 38.804 67.056 39.4376C66.5472 49.3928 60.528 53.9912 58.6176 54.9704L58.6272 54.9608Z" fill="#B54D4D"/>
<path d="M58.6275 41.5095C59.2691 41.5095 59.7891 40.6069 59.7891 39.4935C59.7891 38.3801 59.2691 37.4775 58.6275 37.4775C57.986 37.4775 57.4659 38.3801 57.4659 39.4935C57.4659 40.6069 57.986 41.5095 58.6275 41.5095Z" fill="#441D39"/>
<path d="M41.2031 41.097C41.8446 41.097 42.3647 40.1944 42.3647 39.081C42.3647 37.9676 41.8446 37.065 41.2031 37.065C40.5616 37.065 40.0415 37.9676 40.0415 39.081C40.0415 40.1944 40.5616 41.097 41.2031 41.097Z" fill="#441D39"/>
<path d="M50.6785 48.5569H48.8449C48.0289 48.5569 47.3089 48.2401 46.9249 47.7121C46.6465 47.3377 46.5697 46.8961 46.7041 46.4641C47.1169 45.1393 47.6545 40.1953 47.6545 40.1473C47.6833 39.8785 47.9137 39.6961 48.1825 39.7249C48.4417 39.7537 48.6337 39.9937 48.6049 40.2529C48.5857 40.4641 48.0481 45.3313 47.6161 46.7521C47.5777 46.8961 47.5969 47.0209 47.6929 47.1553C47.8945 47.4241 48.3457 47.6065 48.8449 47.6065H50.6785C50.9473 47.6065 51.1585 47.8177 51.1585 48.0865C51.1585 48.3553 50.9473 48.5665 50.6785 48.5665V48.5569Z" fill="#FF9988"/>
<path d="M59.6445 44.6685C61.4948 44.6685 62.9949 44.3247 62.9949 43.9005C62.9949 43.4764 61.4948 43.1325 59.6445 43.1325C57.7941 43.1325 56.2941 43.4764 56.2941 43.9005C56.2941 44.3247 57.7941 44.6685 59.6445 44.6685Z" fill="#FF9988"/>
<path d="M40.0892 44.6685C41.9395 44.6685 43.4396 44.3247 43.4396 43.9005C43.4396 43.4764 41.9395 43.1325 40.0892 43.1325C38.2388 43.1325 36.7388 43.4764 36.7388 43.9005C36.7388 44.3247 38.2388 44.6685 40.0892 44.6685Z" fill="#FF9988"/>
<path d="M62.6971 34.8088C59.5003 33.868 57.0523 34.4632 55.5643 34.6552C54.9307 34.732 54.7963 33.9544 54.7963 33.9544C54.6715 33.4264 55.3819 33.0616 55.8811 32.9656C57.5611 32.6584 59.7115 32.5048 62.8987 33.6088C63.5131 33.82 63.5515 34.3384 63.5515 34.3384C63.4843 34.9144 63.1195 34.924 62.6971 34.7992V34.8088Z" fill="#B54D4D"/>
<path d="M36.9596 34.8677C40.1372 33.8693 42.5948 34.4261 44.0828 34.5893C44.7164 34.6565 44.8412 33.8789 44.8412 33.8789C44.9564 33.3509 44.2364 32.9957 43.7372 32.9093C42.0476 32.6309 39.8972 32.5061 36.7388 33.6677C36.1244 33.8885 36.0956 34.4069 36.0956 34.4069C36.1724 34.9829 36.5372 34.9829 36.95 34.8581L36.9596 34.8677Z" fill="#B54D4D"/>
<path d="M49.2193 56.3528C46.9537 56.3528 45.1489 55.8728 45.0337 55.844C44.7745 55.7768 44.6305 55.508 44.6977 55.2584C44.7649 55.0088 45.0337 54.8552 45.2833 54.9224C45.3313 54.932 49.7473 56.1032 53.3089 54.7112C53.5585 54.6152 53.8369 54.74 53.9329 54.98C54.0289 55.2296 53.9041 55.508 53.6641 55.604C52.1953 56.18 50.6209 56.3624 49.2289 56.3624L49.2193 56.3528Z" fill="#9B3D3D"/>
<path d="M39.0624 68.265L46.704 73.7178L43.008 82.569L33.12 73.3626L39.0624 68.265Z" fill="#FFA242"/>
<path d="M46.704 73.7178L47.1648 76.9914L45.4272 76.7706L46.704 73.7178Z" fill="#F49037"/>
<path d="M51.0626 73.5454L50.3906 76.9918L52.2722 76.675L51.0626 73.5454Z" fill="#F49037"/>
<path d="M51.0626 73.5454L58.061 68.4094L64.6178 73.6702L54.8642 83.4142L51.0626 73.5454Z" fill="#FFA242"/>
<path d="M50.3807 78.2494H47.1647V100.531H50.3807V78.2494Z" fill="white"/>
<path d="M47.0974 76.5321L47.1646 78.4905C47.1646 78.4905 48.6622 79.1433 50.3806 78.4905L50.4286 76.7145L47.0878 76.5225L47.0974 76.5321Z" fill="#FFB69F"/>
<path d="M50.3807 82.9538H47.1647V83.9137H50.3807V82.9538Z" fill="#D6D6D6"/>
<path d="M50.3807 87.2831H47.1647V88.2431H50.3807V87.2831Z" fill="#D6D6D6"/>
<path d="M50.3807 91.6125H47.1647V92.5725H50.3807V91.6125Z" fill="#D6D6D6"/>
<path d="M50.3807 95.9419H47.1647V96.9019H50.3807V95.9419Z" fill="#D6D6D6"/>
<path d="M53.117 88.2152C53.5836 88.2152 53.9618 87.837 53.9618 87.3704C53.9618 86.9039 53.5836 86.5256 53.117 86.5256C52.6504 86.5256 52.2722 86.9039 52.2722 87.3704C52.2722 87.837 52.6504 88.2152 53.117 88.2152Z" fill="#FFA242"/>
<path d="M53.117 97.6409C53.5836 97.6409 53.9618 97.2626 53.9618 96.7961C53.9618 96.3295 53.5836 95.9512 53.117 95.9512C52.6504 95.9512 52.2722 96.3295 52.2722 96.7961C52.2722 97.2626 52.6504 97.6409 53.117 97.6409Z" fill="#FFA242"/>
</g>
<defs>
<clipPath id="clip0_37_76">
<rect width="96" height="96" rx="48" fill="white"/>
</clipPath>
</defs>
</svg>
